<svg width="100" height="100" viewBox="0 0 100 100" fill="none" xmlns="http://www.w3.org/2000/svg">
<path fill-rule="evenodd" clip-rule="evenodd" d="M15.4771 97.7217H0.00146484C0.00146484 97.7217 19.9174 36.4208 26.4996 16.1692C29.5791 6.69403 38.4075 0.278809 48.3687 0.278809H76.0355C84.3789 0.278809 91.342 3.803 95.6715 9.75825C99.9978 15.7138 101.225 23.3342 98.7022 31.1082C96.1761 38.8821 93.79 46.2206 91.6057 52.9444C88.6563 62.0231 80.4856 68.2788 71.0387 68.7876C71.0387 68.7876 70.9898 68.7717 84.2259 28.0322C85.3946 24.4371 84.9681 20.9181 83.1321 18.3942C81.2994 15.8707 78.2068 14.3772 74.1149 14.3772H50.374C45.7124 14.3772 41.5814 17.3792 40.1393 21.8133L15.4771 97.7217Z" fill="#F0145A"/>
<path fill-rule="evenodd" clip-rule="evenodd" d="M71.0378 68.7874H39.8452L53.5894 26.9871L69.1384 27.079L60.1097 54.6457L75.6125 54.655L71.0378 68.7874Z" fill="url(#paint0_linear_1_516)"/>
<defs>
<linearGradient id="paint0_linear_1_516" x1="39.843" y1="60.7811" x2="74.5415" y2="78.917" gradientUnits="userSpaceOnUse">
<stop stop-color="#F0145A"/>
<stop offset="1" stop-color="#693264"/>
</linearGradient>
</defs>
</svg>
